# xmcd
# Copyright (c) 1998 CDDB Inc.
#
# Track frame offsets:
#	150
#	25592
#	41537
#	56171
#	71500
#	88760
#	102631
#	121986
#	139931
#	160467
#	185698
#	206378
#	223700
#
# Disc length: 3217 seconds
#
# Revision: 1
# Processed by: cddbd v1.4PL0 Copyright (c) Steve Scherf et al.
# Submitted via: audiograbber 1.70
#
DISCID=c20c8f0d
DTITLE=Михаил Круг - Лирика
DYEAR=1900
DGENRE=
TTITLE0=Осенний дождь
TTITLE1=У каких ворот
TTITLE2=Ништяк, браток !
TTITLE3=Добрая, глупая, давняя
TTITLE4=Тишина
TTITLE5=Электричка
TTITLE6=Девочка - пай
TTITLE7=Девочка - пай - 2
TTITLE8=Это было вчера
TTITLE9=Я люблю тебя
TTITLE10=Селигер
TTITLE11=Катя
TTITLE12=Милый мой город
EXTD=
EXTT0=
EXTT1=
EXTT2=
EXTT3=
EXTT4=
EXTT5=
EXTT6=
EXTT7=
EXTT8=
EXTT9=
EXTT10=
EXTT11=
EXTT12=
PLAYORDER=
